<svg xmlns="http://www.w3.org/2000/svg" xmlns:xlink="http://www.w3.org/1999/xlink" width="300" zoomAndPan="magnify" viewBox="0 0 224.87999 149.999998" height="200" preserveAspectRatio="xMidYMid meet" version="1.0"><defs><g/></defs><g fill="#242424" fill-opacity="1"><g transform="translate(42.673437, 79.695735)"><g><path d="M 12.296875 -21.8125 C 13.898438 -21.8125 15.476562 -21.476562 17.03125 -20.8125 C 18.59375 -20.15625 19.914062 -19.269531 21 -18.15625 L 17.828125 -14.390625 C 17.128906 -15.253906 16.289062 -15.9375 15.3125 -16.4375 C 14.332031 -16.945312 13.359375 -17.203125 12.390625 -17.203125 C 10.679688 -17.203125 9.25 -16.597656 8.09375 -15.390625 C 6.9375 -14.191406 6.359375 -12.707031 6.359375 -10.9375 C 6.359375 -9.125 6.9375 -7.609375 8.09375 -6.390625 C 9.25 -5.179688 10.679688 -4.578125 12.390625 -4.578125 C 13.296875 -4.578125 14.238281 -4.800781 15.21875 -5.25 C 16.195312 -5.707031 17.066406 -6.328125 17.828125 -7.109375 L 21.03125 -3.703125 C 19.863281 -2.515625 18.476562 -1.554688 16.875 -0.828125 C 15.28125 -0.109375 13.691406 0.25 12.109375 0.25 C 8.859375 0.25 6.148438 -0.804688 3.984375 -2.921875 C 1.816406 -5.046875 0.734375 -7.695312 0.734375 -10.875 C 0.734375 -13.976562 1.835938 -16.578125 4.046875 -18.671875 C 6.253906 -20.765625 9.003906 -21.8125 12.296875 -21.8125 Z M 12.296875 -21.8125 "/></g></g></g><g fill="#242424" fill-opacity="1"><g transform="translate(64.047678, 79.695735)"><g><path d="M 2.15625 -21.625 L 11.453125 -21.625 C 14.859375 -21.625 17.625 -20.625 19.75 -18.625 C 21.882812 -16.625 22.953125 -14.019531 22.953125 -10.8125 C 22.953125 -7.625 21.867188 -5.023438 19.703125 -3.015625 C 17.546875 -1.003906 14.726562 0 11.25 0 L 2.15625 0 Z M 7.65625 -17.234375 L 7.65625 -4.390625 L 11.578125 -4.390625 C 13.265625 -4.390625 14.648438 -4.976562 15.734375 -6.15625 C 16.816406 -7.34375 17.359375 -8.882812 17.359375 -10.78125 C 17.359375 -12.675781 16.789062 -14.222656 15.65625 -15.421875 C 14.53125 -16.628906 13.09375 -17.234375 11.34375 -17.234375 Z M 7.65625 -17.234375 "/></g></g></g><g fill="#242424" fill-opacity="1"><g transform="translate(87.738494, 79.695735)"><g><path d="M 22.125 0 L 17.265625 0 L 7.328125 -13.3125 L 7.328125 0 L 2.15625 0 L 2.15625 -21.625 L 7.015625 -21.625 L 16.984375 -8.28125 L 16.984375 -21.625 L 22.125 -21.625 Z M 22.125 0 "/></g></g></g><g fill="#242424" fill-opacity="1"><g transform="translate(112.016174, 79.695735)"><g><path d="M 12.421875 -21.8125 C 15.773438 -21.8125 18.5625 -20.765625 20.78125 -18.671875 C 23.007812 -16.578125 24.125 -13.96875 24.125 -10.84375 C 24.125 -7.6875 23.003906 -5.046875 20.765625 -2.921875 C 18.535156 -0.804688 15.75 0.25 12.40625 0.25 C 9.070312 0.25 6.289062 -0.800781 4.0625 -2.90625 C 1.84375 -5.019531 0.734375 -7.664062 0.734375 -10.84375 C 0.734375 -13.988281 1.84375 -16.601562 4.0625 -18.6875 C 6.289062 -20.769531 9.078125 -21.8125 12.421875 -21.8125 Z M 12.484375 -17.203125 C 10.796875 -17.203125 9.351562 -16.585938 8.15625 -15.359375 C 6.957031 -14.140625 6.359375 -12.625 6.359375 -10.8125 C 6.359375 -9 6.960938 -7.46875 8.171875 -6.21875 C 9.378906 -4.976562 10.816406 -4.359375 12.484375 -4.359375 C 14.148438 -4.359375 15.5625 -4.976562 16.71875 -6.21875 C 17.882812 -7.46875 18.46875 -9 18.46875 -10.8125 C 18.46875 -12.625 17.882812 -14.140625 16.71875 -15.359375 C 15.5625 -16.585938 14.148438 -17.203125 12.484375 -17.203125 Z M 12.484375 -17.203125 "/></g></g></g><g fill="#242424" fill-opacity="1"><g transform="translate(136.880717, 79.695735)"><g><path d="M 15.203125 0 L 11.984375 -6.078125 L 7.65625 -6.078125 L 7.65625 0 L 2.15625 0 L 2.15625 -21.625 L 11.828125 -21.625 C 14.691406 -21.625 16.90625 -20.96875 18.46875 -19.65625 C 20.039062 -18.351562 20.828125 -16.5 20.828125 -14.09375 C 20.828125 -10.75 19.515625 -8.429688 16.890625 -7.140625 L 21.4375 0 Z M 7.65625 -10.40625 L 11.828125 -10.40625 C 13.023438 -10.40625 13.953125 -10.703125 14.609375 -11.296875 C 15.265625 -11.898438 15.59375 -12.769531 15.59375 -13.90625 C 15.59375 -15.007812 15.265625 -15.847656 14.609375 -16.421875 C 13.953125 -17.003906 13.023438 -17.296875 11.828125 -17.296875 L 7.65625 -17.296875 Z M 7.65625 -10.40625 "/></g></g></g><g fill="#242424" fill-opacity="1"><g transform="translate(159.243363, 79.695735)"><g><path d="M 16.53125 -11 L 21.28125 -11 L 21.28125 -2.5625 C 20.101562 -1.738281 18.6875 -1.0625 17.03125 -0.53125 C 15.375 -0.0078125 13.796875 0.25 12.296875 0.25 C 9.003906 0.25 6.253906 -0.800781 4.046875 -2.90625 C 1.835938 -5.019531 0.734375 -7.65625 0.734375 -10.8125 C 0.734375 -13.9375 1.863281 -16.550781 4.125 -18.65625 C 6.394531 -20.757812 9.242188 -21.8125 12.671875 -21.8125 C 14.273438 -21.8125 15.867188 -21.519531 17.453125 -20.9375 C 19.035156 -20.363281 20.382812 -19.582031 21.5 -18.59375 L 18.40625 -14.859375 C 17.625 -15.578125 16.71875 -16.144531 15.6875 -16.5625 C 14.65625 -16.988281 13.640625 -17.203125 12.640625 -17.203125 C 10.867188 -17.203125 9.378906 -16.585938 8.171875 -15.359375 C 6.960938 -14.140625 6.359375 -12.625 6.359375 -10.8125 C 6.359375 -8.976562 6.96875 -7.441406 8.1875 -6.203125 C 9.40625 -4.972656 10.910156 -4.359375 12.703125 -4.359375 C 13.847656 -4.359375 15.125 -4.707031 16.53125 -5.40625 Z M 16.53125 -11 "/></g></g></g><g fill="#6d6d6d" fill-opacity="1"><g transform="translate(61.588468, 97.959553)"><g><path d="M 9.3125 0 L 7.765625 0 L 2.796875 -6.6875 L 2.796875 0 L 1.21875 0 L 1.21875 -9.3125 L 2.765625 -9.3125 L 7.765625 -2.625 L 7.765625 -9.3125 L 9.3125 -9.3125 Z M 9.3125 0 "/></g></g></g><g fill="#6d6d6d" fill-opacity="1"><g transform="translate(77.28885, 97.959553)"><g><path d="M 7.875 -7.90625 L 2.796875 -7.90625 L 2.796875 -5.390625 L 7.34375 -5.390625 L 7.34375 -3.984375 L 2.796875 -3.984375 L 2.796875 -1.40625 L 8.046875 -1.40625 L 8.046875 0 L 1.21875 0 L 1.21875 -9.3125 L 7.875 -9.3125 Z M 7.875 -7.90625 "/></g></g></g><g fill="#6d6d6d" fill-opacity="1"><g transform="translate(91.17836, 97.959553)"><g><path d="M 7.59375 -7.90625 L 4.625 -7.90625 L 4.625 0 L 3.0625 0 L 3.0625 -7.90625 L 0.125 -7.90625 L 0.125 -9.3125 L 7.59375 -9.3125 Z M 7.59375 -7.90625 "/></g></g></g><g fill="#6d6d6d" fill-opacity="1"><g transform="translate(104.042602, 97.959553)"><g><path d="M 10.8125 0 L 9.203125 0 L 6.984375 -7.265625 L 4.75 0 L 3.125 0 L 0.046875 -9.3125 L 1.734375 -9.3125 L 4 -1.75 L 6.25 -9.3125 L 7.78125 -9.3125 L 10.046875 -1.75 L 12.296875 -9.3125 L 13.921875 -9.3125 Z M 10.8125 0 "/></g></g></g><g fill="#6d6d6d" fill-opacity="1"><g transform="translate(122.991893, 97.959553)"><g><path d="M 1.875 -8 C 2.820312 -8.90625 3.992188 -9.359375 5.390625 -9.359375 C 6.785156 -9.359375 7.957031 -8.90625 8.90625 -8 C 9.851562 -7.101562 10.328125 -5.988281 10.328125 -4.65625 C 10.328125 -3.320312 9.851562 -2.203125 8.90625 -1.296875 C 7.957031 -0.390625 6.785156 0.0625 5.390625 0.0625 C 3.992188 0.0625 2.820312 -0.390625 1.875 -1.296875 C 0.925781 -2.203125 0.453125 -3.320312 0.453125 -4.65625 C 0.453125 -5.988281 0.925781 -7.101562 1.875 -8 Z M 5.40625 -7.953125 C 4.476562 -7.953125 3.6875 -7.632812 3.03125 -7 C 2.375 -6.363281 2.046875 -5.582031 2.046875 -4.65625 C 2.046875 -3.738281 2.375 -2.957031 3.03125 -2.3125 C 3.695312 -1.664062 4.488281 -1.34375 5.40625 -1.34375 C 6.320312 -1.34375 7.101562 -1.664062 7.75 -2.3125 C 8.394531 -2.957031 8.71875 -3.738281 8.71875 -4.65625 C 8.71875 -5.582031 8.394531 -6.363281 7.75 -7 C 7.101562 -7.632812 6.320312 -7.953125 5.40625 -7.953125 Z M 5.40625 -7.953125 "/></g></g></g><g fill="#6d6d6d" fill-opacity="1"><g transform="translate(138.931943, 97.959553)"><g><path d="M 7.140625 0 L 5.4375 -2.828125 C 5.34375 -2.816406 5.195312 -2.8125 5 -2.8125 L 2.796875 -2.8125 L 2.796875 0 L 1.21875 0 L 1.21875 -9.3125 L 5 -9.3125 C 6.195312 -9.3125 7.125 -9.035156 7.78125 -8.484375 C 8.4375 -7.929688 8.765625 -7.148438 8.765625 -6.140625 C 8.765625 -5.390625 8.597656 -4.753906 8.265625 -4.234375 C 7.929688 -3.722656 7.453125 -3.347656 6.828125 -3.109375 L 8.921875 0 Z M 2.796875 -4.21875 L 5 -4.21875 C 6.507812 -4.21875 7.265625 -4.84375 7.265625 -6.09375 C 7.265625 -7.300781 6.507812 -7.90625 5 -7.90625 L 2.796875 -7.90625 Z M 2.796875 -4.21875 "/></g></g></g><g fill="#6d6d6d" fill-opacity="1"><g transform="translate(153.713569, 97.959553)"><g><path d="M 7.4375 0 L 4.375 -4.109375 L 2.796875 -2.375 L 2.796875 0 L 1.21875 0 L 1.21875 -9.3125 L 2.796875 -9.3125 L 2.796875 -4.5 L 7.234375 -9.3125 L 9.09375 -9.3125 L 5.484375 -5.34375 L 9.328125 0 Z M 7.4375 0 "/></g></g></g></svg>
